<svg width="70" height="70" viewBox="0 0 70 70" fill="none" xmlns="http://www.w3.org/2000/svg">
    <g clip-path="url(#clip0_41_11)">
        <path
            d="M0.812208 4.73629C-0.270736 3.65336 -0.270736 1.89709 0.812208 0.813599C1.89515 -0.269897 3.65145 -0.269897 4.73496 0.813599L34.9999 31.078L65.2648 0.813599C66.3477 -0.269897 68.104 -0.269897 69.1881 0.813599C70.271 1.89653 70.271 3.65336 69.1881 4.73629L38.922 35.0001L69.1875 65.2651C70.2705 66.348 70.2705 68.1043 69.1875 69.1878C68.104 70.2713 66.3477 70.2713 65.2642 69.1878L34.9993 38.9234L4.73496 69.1878C3.65202 70.2713 1.89572 70.2713 0.812208 69.1878C-0.270736 68.1049 -0.270736 66.3486 0.812208 65.2651L31.0771 35.0001L0.812208 4.73629Z"
            fill="#ffffff" />
    </g>
</svg>