<svg width="14" height="18" viewBox="0 0 40 46" fill="none" xmlns="http://www.w3.org/2000/svg">
    <g clip-path="url(#clip0_38_2)">
        <path
            d="M1.79992 3.39085H14.1182V2.32096V2.3161C14.1182 2.28053 14.119 2.24647 14.1234 2.21165C14.1511 1.61569 14.4049 1.07476 14.7942 0.682064L14.7916 0.679443C15.1994 0.266162 15.7656 0.00935872 16.3891 0.00336914L16.3976 0.00411784V0H16.409H23.7535H23.7594C23.7985 0 23.8359 0.00336914 23.8735 0.00823568C24.4582 0.039681 24.9886 0.292741 25.3746 0.685807C25.7817 1.09909 26.0343 1.67222 26.0406 2.30112L26.0395 2.30898H26.0447V2.32096V3.39048H38.2001H38.2064C38.2573 3.39048 38.3054 3.39572 38.3545 3.40321C38.7911 3.44289 39.187 3.63717 39.4751 3.93104L39.4766 3.93366L39.4785 3.93104C39.7928 4.25186 39.9904 4.69771 39.9959 5.19185L39.9952 5.20383H40.0004V5.2158V9.26963C40.0004 9.82067 39.559 10.2673 39.0153 10.2673H38.9894H0.985096C0.441391 10.2669 0 9.8203 0 9.26963V9.24604V5.2158V5.21056C0 5.17088 0.00147746 5.13158 0.00664857 5.09264V5.08478C0.039522 4.63294 0.237132 4.22228 0.531885 3.92505L0.5293 3.9243C0.847692 3.60199 1.28908 3.40171 1.77665 3.39497L1.78846 3.39572V3.39085H1.79992ZM28.7329 18.3794H26.537V39.3778H28.7329V18.3794ZM21.5931 18.3794H19.3961V39.3778H21.5931V18.3794ZM14.4532 18.3794H12.257V39.3778H14.4532V18.3794ZM4.00281 11.8178H36.2798L36.3828 11.8246L36.4297 11.8272L36.4792 11.8313H36.4825L36.5427 11.8399C37.0462 11.9009 37.5171 12.1353 37.8621 12.4793C38.2463 12.863 38.4919 13.3833 38.4919 13.9632C38.4919 13.9999 38.4886 14.0355 38.4849 14.0703L38.4841 14.0957L38.479 14.1534L35.7482 43.8524L35.7457 43.8685H35.7482L35.7423 43.9205L35.7235 44.0264L35.7228 44.0283L35.722 44.035C35.7017 44.159 35.6777 44.2769 35.6448 44.3824L35.6422 44.3907L35.6415 44.3925L35.6382 44.3993L35.6297 44.4225L35.6282 44.4304C35.5846 44.5629 35.5307 44.6917 35.4686 44.8081C35.0959 45.5118 34.4052 46.0011 33.5465 46.0011H6.69659L6.60535 45.9959V45.997L6.60129 45.9959L6.58947 45.9944C6.41956 45.9858 6.2611 45.9603 6.11373 45.9188C5.96044 45.8753 5.81159 45.8117 5.6716 45.7335L5.66827 45.7327L5.66753 45.7335C5.00822 45.3677 4.56867 44.6546 4.49665 43.8535L1.8025 14.1466L1.79844 14.0999L1.79437 14.0074L1.7929 13.964H1.79105C1.79105 13.3826 2.03631 12.8611 2.42156 12.4774C2.78206 12.1199 3.27848 11.8788 3.80889 11.8313L3.85395 11.8298V11.8272L3.96476 11.8223L4.00318 11.8231V11.8178H4.00281ZM36.2801 13.8146H4.00281V13.812L3.95996 13.8135C3.89975 13.8217 3.84103 13.8532 3.79818 13.8966C3.77491 13.9202 3.75977 13.946 3.75977 13.9636H3.75718L3.75977 14.0078L6.44948 43.6727H6.44874L6.44948 43.6772C6.4613 43.8179 6.52409 43.9358 6.61459 43.986L6.61385 43.9875L6.64487 43.9995L6.66814 44.004H6.69659H33.5476C33.624 44.004 33.6949 43.9452 33.7389 43.8628L33.7699 43.7891L33.7899 43.7082L33.795 43.6566H33.7969L36.5243 14.0044L36.5232 13.9632C36.5232 13.9464 36.508 13.9217 36.4851 13.8988C36.4408 13.8547 36.3795 13.8232 36.3185 13.8139L36.2801 13.8146ZM15.1022 5.38651H1.96945V8.27124H38.0305V5.38651H25.0825H25.0592C24.5155 5.38651 24.0752 4.94028 24.0752 4.38924V2.32096V2.30898H24.0778C24.0752 2.22663 24.0386 2.14689 23.9821 2.08999C23.9315 2.03721 23.8624 2.00426 23.7897 1.99565H23.7594H23.7535H16.409H16.3976V1.99341C16.3189 1.99603 16.2417 2.03234 16.1848 2.09036L16.1834 2.08887L16.1808 2.09036C16.1324 2.14053 16.0954 2.20754 16.0851 2.27791L16.0877 2.3161V2.32096V4.38887C16.0873 4.93991 15.6459 5.38651 15.1022 5.38651Z"
            fill="#FF0000" />
    </g>
    <defs>
        <clipPath id="clip0_38_2">
            <rect width="40" height="46" fill="white" />
        </clipPath>
    </defs>
</svg>